<?xml version="1.0" encoding="UTF-8"?> <svg xmlns="http://www.w3.org/2000/svg" width="255" height="255" viewBox="0 0 255 255" fill="none"> <path d="M136.058 9.62729C201.31 14.5699 250.217 71.4221 245.269 136.739C240.327 201.991 183.409 250.893 118.158 245.95C52.9062 241.008 4.00385 184.09 8.94641 118.838C13.8939 53.5214 70.8068 4.68473 136.058 9.62729Z" fill="url(#paint0_radial_564_36)"></path> <mask id="mask0_564_36" style="mask-type:luminance" maskUnits="userSpaceOnUse" x="8" y="9" width="238" height="238"> <path d="M136.055 9.62705C201.315 14.5702 250.212 71.4811 245.269 136.739C240.326 201.997 183.414 250.893 118.154 245.95C52.8946 241.007 4.00335 184.096 8.94641 118.838C13.8895 53.5805 70.7952 4.68385 136.055 9.62705Z" fill="white"></path> </mask> <g mask="url(#mask0_564_36)"> <path opacity="0.3" d="M108.601 -22.4417C97.0924 -17.1761 83.929 -20.6149 72.1256 -16.6915C63.1683 -13.6744 55.7785 -6.90896 47.2776 -2.93339C41.7889 -0.313476 35.2819 0.909459 30.0773 4.14482C11.0528 16.1003 16.7297 37.186 6.64788 54.1744C-4.86704 73.4959 -18.9468 76.9169 -17.5407 103.75C-16.7324 118.396 -16.7937 133.174 -19.5409 147.616C-22.3178 162.452 -19.3255 172.71 -7.15687 184.916C-2.17901 189.913 3.36957 194.358 8.70103 199.052C17.5008 206.846 27.1454 214.835 29.5283 227.026C30.8773 233.662 29.6719 239.972 28.077 246.186C40.61 250.963 53.7983 254.074 67.2622 255.292C66.8803 253.349 66.1388 250.917 65.0214 247.335C62.6243 239.696 59.6068 233.264 53.3437 227.774C47.4503 222.643 46.9385 218.05 42.6667 211.589C36.3632 202.269 26.3316 203.753 18.7574 197.24C13.411 192.743 11.772 184.7 8.0273 179.137C3.57317 172.464 -4.16506 168.117 -7.65395 160.923C-10.23 155.646 -9.7976 149.938 -9.04142 144.32C-7.94001 135.89 -6.99114 126.855 -3.73985 118.852C-1.70842 113.859 1.65407 109.626 4.0651 104.859C6.78882 99.456 7.88373 93.7316 9.70683 87.9963C10.7493 84.7097 12.3078 81.5941 13.5426 78.388C16.1884 71.3952 15.5798 66.3337 16.1116 59.3127C16.6335 52.423 19.5954 47.368 23.5783 41.9283C28.5961 35.0492 34.3581 28.8203 39.877 22.3092C44.8909 16.3536 48.5069 8.77442 55.5514 4.82052C61.5649 1.38245 67.7603 1.65377 74.4458 1.56624C82.6585 1.39641 90.6258 -0.771781 98.6744 1.22372C104.512 2.72181 108.774 4.95837 115.037 3.45305C118.071 2.69293 121.007 1.4635 124.142 1.10703C131.944 0.246176 137.437 4.55579 144.384 7.12777C148.703 6.86095 152.952 7.51278 157.618 10.506C164.689 14.9351 174.648 23.1466 178.021 30.9913C179.533 34.6034 180.024 38.6002 182.354 41.8784C184.68 45.2222 188.228 47.2727 191.124 50.0658C194.826 53.5798 197.263 57.1961 199.085 61.9535C203.373 73.4311 215.138 78.7438 216.192 91.0322C216.941 99.47 219.237 111.061 213.968 118.647C209.803 124.733 204.692 129.361 201.525 136.248C199.079 141.474 197.013 146.927 193.17 151.388C188.232 157.217 181.959 159.711 178.475 167.301C176.801 171.067 175.997 174.702 172.86 177.698C166.794 183.574 158.08 183.376 150.283 184.171C137.217 185.557 124.559 189.416 111.246 187.945C101.08 186.845 92.0604 181.081 84.0011 174.861C78.9995 171.05 75.9135 166.395 72.6849 161.003C72.2119 160.263 71.7373 159.545 71.261 158.849C69.3805 156.903 67.6398 154.858 66.0389 152.713C63.7602 150.494 61.3351 148.463 58.8033 146.093C51.6993 139.484 48.8905 130.296 49.6112 120.782C50.2015 112.115 52.4941 101.928 56.9648 94.4136C63.3278 83.7429 65.0714 79.0575 76.3205 72.8483C85.8413 67.6302 92.1228 64.1464 102.868 67.2041C113.999 70.4229 122.702 70.7522 131.846 78.374C138.751 84.1105 146.349 89.4375 146.347 99.0722C146.326 106.33 148.673 113.767 143.238 119.163C138.521 123.821 133.523 126.94 127.05 126.845C121.831 126.78 115.119 126.338 110.317 124.258C104.944 121.871 101.549 116.929 96.0383 114.597C95.846 114.517 95.7244 114.376 95.5371 114.229C94.7083 114.695 93.9304 115.362 93.274 116.17C92.8869 116.624 92.5875 117.086 92.3757 117.554C91.7644 125.624 110.388 135.548 116.686 137.081C128.362 140.077 143.442 139.174 151.869 129.187C157.327 122.605 159.894 109.667 160.384 101.455C161.213 89.6395 153.685 76.3987 144.309 68.3633C127.176 53.603 103.804 47.8731 82.9419 58.7655C75.0885 62.9221 68.8796 71.5588 63.2751 78.3274C55.565 87.5763 48.8882 98.0254 46.7852 110.075C45.0534 119.842 45.7937 132.767 47.9661 142.501C50.281 152.971 58.2635 158.459 63.2061 167.412C71.4592 182.424 90.9498 193.997 107.33 197.746C118.05 200.273 127.255 200.971 138.163 201.005C141.865 201.021 145.377 202.673 149.013 202.685C155.416 202.84 160.919 200.023 166.971 198.7C169.797 198.056 172.422 198.321 175.233 197.874C182.256 196.822 186.844 193.87 193.066 191.173C194.431 190.617 205.512 187.496 205.147 190.57C205.212 189.717 205.646 189.222 206.197 188.934C209.109 184.535 211.768 179.985 214.174 175.284C212.141 175.064 210.188 174.652 208.392 173.922C195.626 168.732 196.579 151.778 206.836 144.702C212.278 140.956 219.994 140.353 225.836 137.43C226.595 137.025 227.292 136.55 227.984 136.141C233.34 109.951 231.821 81.9873 221.828 55.0312C219.859 49.6026 217.536 44.4772 215.006 39.4681C203.858 38.2277 192.408 38.3504 186.674 27.6212C182.497 19.9136 184.482 10.2971 187.408 1.34573C169.766 -16.2908 148.185 -29.0783 124.588 -36.211C120.014 -30.8162 115.444 -25.487 108.601 -22.4417Z" fill="url(#paint1_linear_564_36)"></path> <path opacity="0.3" d="M161.945 236.534C170.086 226.844 183.441 224.288 192.367 215.583C199.08 209.023 202.832 199.661 208.74 192.379C212.599 187.716 217.925 183.759 221.16 178.587C233.118 159.54 218.83 142.999 220.585 123.312C222.55 100.866 233.762 91.6728 220.8 68.0962C213.708 55.2046 207.379 41.8423 203.563 27.6132C199.64 13.0457 192.504 5.10572 176.205 -0.621343C169.506 -2.97866 162.62 -4.62337 155.82 -6.52584C144.426 -9.76731 132.354 -12.7958 124.841 -22.7464C120.758 -28.2089 119.106 -34.346 117.798 -40.6553C104.422 -39.5544 91.2398 -36.655 78.581 -31.9321C79.7817 -30.3216 81.4886 -28.4085 84.0613 -25.7031C89.5715 -19.8683 95.0497 -15.3572 103.079 -13.0974C110.593 -11.0087 113.076 -7.12092 119.722 -3.18206C129.404 2.57242 137.839 -3.13108 147.502 -0.615309C154.242 1.2165 159.237 7.73903 165.062 11.1533C171.961 15.2435 180.849 15.7845 187.081 20.8152C191.703 24.4026 193.743 29.7763 195.52 35.1302C198.216 43.1963 201.266 51.8178 201.808 60.3814C202.189 65.8277 200.997 71.0888 200.857 76.4296C200.728 82.4979 202.288 88.0996 203.094 94.0406C203.625 97.5162 203.558 101.013 203.826 104.468C204.457 111.85 207.234 116.222 209.781 122.757C212.338 129.161 211.83 135.003 210.665 141.653C209.102 150.058 206.573 158.124 204.49 166.423C202.532 173.938 202.552 182.396 197.953 188.985C194.015 194.699 188.277 197.105 182.293 200.153C175.004 203.829 168.774 209.237 160.644 210.934C154.733 212.138 149.917 211.971 144.915 216.019C142.52 217.952 140.419 220.369 137.715 222.014C131.115 226.205 124.28 224.762 116.891 225.392C113.096 227.483 108.96 228.821 103.456 228.14C95.2008 227.118 82.6688 224.055 76.2181 218.413C73.2359 215.875 71.0517 212.406 67.5594 210.49C64.0063 208.503 59.9293 208.194 56.1243 206.915C51.282 205.359 47.5466 203.16 43.7792 199.637C34.8973 191.169 22.0458 191.451 15.7102 180.796C11.3666 173.53 4.28396 164.009 5.69892 154.933C6.84802 147.62 9.44487 141.277 9.29872 133.602C9.20555 127.847 8.71781 122.062 10.2028 116.427C12.2217 108.982 16.7675 103.975 16.6003 95.7042C16.4535 91.5309 15.6043 87.899 17.1014 83.8502C20.015 75.9447 27.9613 72.3184 34.6223 68.1983C45.8572 61.3195 55.5317 52.3405 68.1706 47.8804C77.8874 44.4543 88.5003 45.7867 98.4617 47.8625C104.644 49.1897 109.392 51.9938 114.616 55.4946C115.372 55.9923 116.109 56.4446 116.828 56.8513C119.402 57.7951 121.876 58.8854 124.252 60.1224C127.222 61.0741 130.333 61.9044 133.693 62.9517C142.866 65.8267 149.471 72.9336 152.901 81.7821C156.122 89.888 158.528 100.046 157.734 108.773C156.667 121.113 157.144 126.17 149.672 136.637C143.381 145.476 139.165 151.367 128.247 153.182C116.789 155.155 108.786 158.645 97.2409 155.657C88.5438 153.478 79.3317 151.988 75.1633 143.282C72.0243 136.701 66.6965 131.079 69.2315 123.805C71.4896 117.568 74.6445 112.587 80.5385 109.863C85.1991 107.705 91.4726 105.207 96.7123 105.01C102.549 104.791 107.813 107.766 113.72 107.487C113.983 107.507 114.109 107.583 114.372 107.603C114.897 106.784 115.361 105.894 115.573 104.853C115.703 104.29 115.767 103.744 115.763 103.215C112.825 95.7256 91.7278 94.8543 85.3465 96.1547C73.5951 98.5018 60.3427 105.822 57.1317 118.528C55.0481 126.827 58.3819 139.566 61.4413 147.197C65.8959 158.237 78.3995 166.914 90.3905 170.135C112.167 176.013 135.755 171.06 149.817 152.174C155.119 145.044 156.907 134.542 159.076 125.986C162.01 114.316 163.471 102.006 160.129 90.2576C157.416 80.6706 151.13 69.3596 144.985 61.4286C138.349 52.998 128.737 51.5432 120.394 45.5599C106.397 35.6467 83.8624 33.6755 67.4493 37.3212C56.75 39.7481 48.1003 43.0569 38.289 47.7311C34.9275 49.3264 31.018 49.4266 27.7272 50.9612C21.9697 53.6302 18.223 58.5656 13.3065 62.3554C10.9873 64.1617 8.53538 65.0991 6.23601 66.6427C0.313246 70.6205 -2.48798 75.2972 -6.9072 80.38C-7.92235 81.5583 -16.5667 89.1619 -17.5314 86.1819C-17.2623 86.995 -17.4436 87.642 -17.8122 88.1426C-18.4733 93.3778 -18.9371 98.628 -19.0722 103.903C-17.1713 103.254 -15.2145 102.742 -13.2219 102.629C0.463488 101.815 7.01271 117.507 0.835493 128.336C-2.44488 134.1 -9.15178 137.952 -13.1157 143.135C-13.6307 143.823 -14.08 144.516 -14.5292 145.208C-7.9014 171.212 5.58299 195.753 26.2893 215.754C30.4164 219.766 34.7706 223.4 39.2056 226.841C49.7413 223.08 60.0428 218.047 69.8841 225.2C76.9664 230.362 79.3554 239.858 80.6266 249.27C104.14 257.525 129.24 259.691 153.599 255.92C155.375 249.052 157.142 242.315 161.945 236.534Z" fill="url(#paint2_linear_564_36)"></path> <path opacity="0.3" d="M228.747 105.347C222.505 94.3612 224.709 80.9733 219.69 69.5509C215.847 60.9285 208.421 54.2167 203.679 46.1213C200.573 40.8609 198.675 34.5017 195.008 29.6616C181.355 11.7665 160.809 19.4011 142.94 10.9064C122.582 1.23142 117.868 -12.4821 91.2555 -8.547C76.6801 -6.41109 61.9016 -5.08404 47.2615 -6.45746C32.227 -7.86075 22.2804 -3.98568 11.2222 9.32666C6.71309 14.7377 2.76076 20.6537 -1.43958 26.3526C-8.37608 35.8776 -15.4381 46.1866 -27.342 49.715C-33.903 51.6645 -40.2698 51.05 -46.6775 50.1018C-50.2323 62.9907 -52.1078 76.4035 -52.1376 89.89C-50.1814 89.3769 -47.7908 88.3678 -44.3743 86.9075C-37.0005 83.8293 -30.8459 80.2621 -25.9035 73.4954C-21.3904 67.159 -16.8255 66.2485 -10.8342 61.3465C-2.03406 54.2769 -4.46252 44.4392 1.31756 36.2151C5.32069 30.5013 13.1706 28.1205 18.384 23.8869C24.6531 18.8075 28.2439 10.6821 35.1007 6.57301C40.1587 3.51782 45.8522 3.42012 51.5207 3.65113C60.0261 3.96477 69.138 4.126 77.4183 6.53847C82.5878 8.12023 87.1269 11.0428 92.1301 13.0748C97.7808 15.2881 103.561 15.792 109.413 17.0948C112.857 17.8847 116.069 19.1199 119.438 20.0362C126.626 22.0354 131.666 20.9624 138.684 20.8328C145.571 20.6933 150.873 23.1446 156.692 26.627C164.029 31.0178 170.78 36.1577 177.749 41.0495C184.221 45.507 192.067 48.4156 196.722 55.0497C200.657 60.7036 200.978 66.9433 201.668 73.5416C202.568 81.7427 205.555 89.4406 204.27 97.6746C203.362 103.557 201.501 108.044 203.551 114.15C204.581 117.138 206.091 119.897 206.716 122.986C208.318 130.645 204.563 136.576 202.569 143.698C203.236 147.981 203.044 152.264 200.486 157.228C196.687 164.61 189.464 175.304 181.945 179.429C178.498 181.283 174.535 182.107 171.428 184.715C168.383 187.394 166.647 191.097 164.163 194.215C160.952 198.204 157.638 200.928 152.969 203.219C141.982 208.603 137.754 220.779 125.555 222.963C117.239 224.515 105.881 227.82 97.8259 223.309C91.3545 219.711 86.2825 215.095 79.069 212.565C73.6664 210.569 68.0317 209.018 63.2595 205.681C56.9843 201.239 53.8677 195.25 46.0117 192.473C42.0813 191.117 38.344 190.702 35.1198 187.879C28.727 182.37 28.0646 173.658 26.5286 166.003C24.0006 153.117 18.9146 140.83 19.1317 127.489C19.3169 117.189 24.2005 107.706 29.6767 99.1287C33.0583 93.7645 37.3573 90.2551 42.4651 86.5425C43.1656 86.0225 43.8443 85.5009 44.501 84.9776C46.2886 82.9089 48.1539 80.9784 50.0968 79.186C52.1368 76.6957 53.9187 74.1197 56.115 71.3106C61.9817 63.6882 70.9223 60.0014 80.4536 59.8638C89.196 59.6664 99.5431 60.9791 107.456 64.7523C118.622 70.0943 123.548 71.3932 130.741 82.0546C136.87 91.0485 140.917 96.9753 138.831 107.926C136.71 119.336 137.176 128.033 130.351 137.831C125.298 145.185 120.716 153.301 111.064 154.157C103.804 154.864 96.6322 157.891 90.7255 152.947C85.6944 148.665 82.0837 143.961 81.5806 137.509C81.1752 132.387 81.0258 125.632 82.6583 120.664C84.4721 115.049 89.0589 111.231 90.9434 105.555C91.0291 105.297 91.1048 105.17 91.2462 105.049C90.7143 104.215 89.9752 103.498 89.0947 102.902C88.6325 102.603 88.1451 102.345 87.6325 102.13C79.5524 102.312 71.3988 121.795 70.3849 128.198C68.5632 140.028 70.8004 155.008 81.5439 162.434C88.5831 167.265 101.772 168.595 109.983 168.424C121.911 168.071 134.34 159.359 141.584 149.262C154.679 130.88 158.201 107.079 145.416 87.3318C140.558 79.8889 131.379 74.499 124.087 69.5165C114.093 62.6763 103.083 57.0155 90.8604 56.0236C80.9337 55.2717 68.1632 57.1476 58.6051 60.2586C48.3746 63.5171 43.6364 71.9523 35.1988 77.727C20.9811 87.3617 11.2965 107.853 8.97981 124.472C7.49575 135.336 7.65319 144.605 8.61645 155.456C8.92923 159.182 7.65929 162.855 7.91629 166.445C8.42432 172.831 11.7323 178.041 13.5999 183.935C14.5133 186.715 14.5113 189.36 15.1667 192.054C16.889 198.995 20.2667 203.284 23.5198 209.217C24.2798 210.531 28.3578 221.287 25.258 221.185C26.1176 221.184 26.6844 221.557 26.9732 222.108C31.6786 224.58 36.4039 226.79 41.3414 228.817C41.3643 226.769 41.6502 224.74 42.189 222.864C46.1583 209.742 63.1321 209.11 71.1375 218.643C75.4465 223.73 76.7244 231.298 80.1997 236.917C80.6758 237.615 81.157 238.246 81.6381 238.878C108.329 241.759 136.08 237.646 162.01 225.261C167.225 222.747 172.132 219.945 176.917 217.001C177.106 205.775 175.985 194.383 186.08 187.676C193.392 182.808 203.162 183.879 212.392 185.967C228.323 166.808 239.102 144.085 244.04 119.928C238.195 115.915 232.486 111.846 228.747 105.347Z" fill="url(#paint3_linear_564_36)"></path> <path opacity="0.3" d="M-23.9893 183.21C-13.575 190.408 -9.74334 203.45 -0.257072 211.569C6.87404 217.659 16.5008 220.437 24.2924 225.652C29.315 229.072 33.7588 234.033 39.1644 236.755C59.1905 246.928 74.381 231.164 94.1281 231.074C116.647 230.995 126.833 241.215 149.098 226.186C161.277 217.924 173.998 210.364 187.721 205.259C201.918 199.992 209.18 192.15 213.352 175.42C215.056 168.611 216.053 161.551 217.374 154.581C219.507 142.982 221.361 130.701 230.577 122.347C235.611 117.773 241.652 115.588 247.805 113.675C245.437 100.48 241.328 87.6147 235.452 75.4088C233.964 76.7496 232.235 78.6669 229.779 81.4541C224.504 87.4635 220.497 93.3047 219.011 101.583C217.641 109.21 213.928 112.034 210.624 119.052C205.828 129.194 212.3 137.018 210.629 146.869C209.511 153.788 203.479 159.343 200.572 165.466C197.187 172.676 197.439 181.548 193.034 188.285C189.828 193.129 184.746 195.718 179.558 197.967C171.706 201.403 163.49 205.274 155.004 206.613C149.658 207.463 144.3 206.727 138.923 207.113C132.879 207.58 127.444 209.613 121.598 210.954C118.236 211.757 114.783 212.024 111.366 212.69C104.005 213.982 99.9343 217.176 93.687 220.337C87.5103 223.437 81.6987 223.459 74.9423 222.881C66.4135 222.169 58.1613 220.421 49.7479 219.057C42.0516 217.813 33.671 218.632 26.6432 214.664C20.6309 211.235 17.6761 205.791 14.1455 200.106C9.78544 193.169 3.81104 187.496 1.37859 179.516C-0.364704 173.767 -0.597203 168.993 -5.13144 164.354C-7.27473 162.144 -9.84174 160.298 -11.7682 157.839C-16.5769 151.595 -15.7212 144.656 -17.0168 137.356C-19.4544 133.801 -21.1352 129.842 -20.9797 124.304C-20.7416 115.93 -18.8522 103.189 -13.9017 96.2305C-11.6179 93.0998 -8.38932 90.5694 -6.79279 86.9242C-5.12564 83.2183 -5.14534 79.1203 -4.25597 75.2233C-3.15071 70.2195 -1.33731 66.3264 1.8745 62.275C9.46785 52.6751 7.99443 39.8776 17.9887 32.5739C24.8349 27.6084 33.6216 19.6846 42.8218 20.2494C50.1839 20.6749 56.7652 22.693 64.2875 21.8753C70.0782 21.2568 75.7675 20.2341 81.57 21.2022C89.135 22.436 94.5018 26.5425 102.761 25.5824C106.891 25.1023 110.419 23.8499 114.555 25.0222C122.712 27.1597 127.088 34.7591 131.765 40.9938C139.618 51.4995 149.449 60.3049 155.062 72.4909C159.374 81.8034 159.027 92.4808 157.867 102.568C157.127 108.855 154.764 113.896 151.837 119.422C151.383 120.181 150.995 120.944 150.673 121.713C149.989 124.348 149.136 126.904 148.112 129.381C147.413 132.5 146.846 135.628 146.128 139.01C144.159 148.441 137.674 155.614 129.226 159.93C121.405 163.83 111.512 167.177 102.727 167.239C90.3764 167.294 85.4192 168.24 74.3544 161.786C64.9317 156.315 58.7324 152.74 55.8525 141.95C52.8712 130.756 48.6315 123.101 50.5119 111.351C51.9058 102.537 52.5417 93.2686 60.7764 88.2762C67.0685 84.5242 72.197 78.7018 79.6466 80.5876C85.9902 82.2574 91.2695 84.9037 94.5425 90.5035C97.178 94.9317 100.219 100.976 100.886 106.115C101.635 111.92 99.1722 117.415 99.9765 123.357C100.027 123.559 99.9467 123.751 99.9318 123.948C100.755 124.407 101.715 124.81 102.765 124.889C103.331 124.976 103.88 124.996 104.411 124.948C111.623 121.265 110.509 100.236 108.669 94.0182C105.182 82.5218 96.6859 70.0513 83.7679 68.0157C75.3495 66.7173 62.9286 71.1944 55.6418 75.0032C45.0648 80.4128 37.5867 93.7215 35.4745 105.917C31.6164 128.089 38.7865 151.097 58.8552 163.321C66.429 167.925 76.9928 168.791 85.7394 170.114C97.6826 171.944 110.003 172.283 121.429 167.862C130.746 164.273 141.397 157.019 148.655 150.103C156.473 142.766 157.073 133.099 162.168 124.235C170.821 109.364 170.685 86.7566 165.491 70.7702C162.122 60.3399 157.998 52.0327 152.433 42.6915C150.562 39.5104 150.128 35.6454 148.317 32.535C145.105 27.0059 139.87 23.7683 135.589 19.2814C133.637 17.1514 132.433 14.7477 130.684 12.5669C126.143 7.13545 121.243 4.71602 115.796 0.801583C114.548 -0.151902 106.228 -7.98395 109.029 -9.22538C108.277 -8.8859 107.56 -9.00629 107.055 -9.30885C101.788 -9.50955 96.5016 -9.44746 91.261 -9.11763C92.1113 -7.26927 92.7597 -5.37014 93.0749 -3.43017C95.15 10.1397 80.1578 18.0559 68.7916 12.9664C62.7952 10.1996 58.3197 3.91414 52.7769 0.388897C52.019 -0.0649421 51.3168 -0.38242 50.6196 -0.765592C25.3788 8.22442 2.2055 23.9122 -15.8001 46.3343C-19.4406 50.8157 -22.6315 55.4634 -25.6355 60.2573C-20.9235 70.3929 -14.995 80.1582 -21.199 90.5902C-25.7298 98.1096 -34.956 101.375 -44.0976 103.524C-50.15 127.644 -50.0766 152.823 -44.0265 176.671C-37.0473 177.794 -30.1388 178.978 -23.9893 183.21Z" fill="url(#paint4_linear_564_36)"></path> </g> <path opacity="0.3" d="M136.062 9.62729C201.314 14.5699 250.221 71.4221 245.273 136.739C240.331 201.991 183.413 250.893 118.162 245.95C52.9101 241.008 4.00775 184.09 8.95031 118.838C13.8978 53.5214 70.8107 4.68473 136.062 9.62729Z" fill="url(#paint5_radial_564_36)"></path> <path style="mix-blend-mode:overlay" opacity="0.5" d="M136.062 9.62729C201.314 14.5699 250.221 71.4221 245.273 136.739C240.331 201.991 183.413 250.893 118.162 245.95C52.9101 241.008 4.00775 184.09 8.95031 118.838C13.8978 53.5214 70.8107 4.68473 136.062 9.62729Z" fill="url(#paint6_radial_564_36)"></path> <path style="mix-blend-mode:overlay" opacity="0.5" d="M136.062 9.62729C201.314 14.5699 250.221 71.4221 245.273 136.739C240.331 201.991 183.413 250.893 118.162 245.95C52.9101 241.008 4.00775 184.09 8.95031 118.838C13.8978 53.5214 70.8107 4.68473 136.062 9.62729Z" fill="url(#paint7_radial_564_36)"></path> <path style="mix-blend-mode:overlay" opacity="0.5" d="M136.062 9.62729C201.314 14.5699 250.221 71.4221 245.273 136.739C240.331 201.991 183.413 250.893 118.162 245.95C52.9101 241.008 4.00775 184.09 8.95031 118.838C13.8978 53.5214 70.8107 4.68473 136.062 9.62729Z" fill="url(#paint8_radial_564_36)"></path> <defs> <radialGradient id="paint0_radial_564_36" cx="0" cy="0" r="1" gradientUnits="userSpaceOnUse" gradientTransform="translate(16.9364 47.3478) rotate(-85.6683) scale(248.784)"> <stop stop-color="#4793FF"></stop> <stop offset="0.995" stop-color="#0B2148"></stop> </radialGradient> <linearGradient id="paint1_linear_564_36" x1="-28.9962" y1="248.001" x2="-6.71483" y2="-46.1568" gradientUnits="userSpaceOnUse"> <stop stop-color="#204190"></stop> <stop offset="0.995" stop-color="#2569E4"></stop> </linearGradient> <linearGradient id="paint2_linear_564_36" x1="168.475" y1="-67.0752" x2="275.978" y2="208.146" gradientUnits="userSpaceOnUse"> <stop stop-color="#0B2148"></stop> <stop offset="0.995" stop-color="#4793FF"></stop> </linearGradient> <linearGradient id="paint3_linear_564_36" x1="-53.7568" y1="-6.57141" x2="241.778" y2="-11.6887" gradientUnits="userSpaceOnUse"> <stop stop-color="#204190"></stop> <stop offset="0.995" stop-color="#204190"></stop> </linearGradient> <linearGradient id="paint4_linear_564_36" x1="278.703" y1="161.605" x2="14.8462" y2="294.072" gradientUnits="userSpaceOnUse"> <stop stop-color="#4793FF"></stop> <stop offset="0.995" stop-color="#4793FF"></stop> </linearGradient> <radialGradient id="paint5_radial_564_36" cx="0" cy="0" r="1" gradientUnits="userSpaceOnUse" gradientTransform="translate(16.9403 47.3478) rotate(-85.6683) scale(248.784)"> <stop stop-color="#2569E4"></stop> <stop offset="0.995" stop-color="#4793FF"></stop> </radialGradient> <radialGradient id="paint6_radial_564_36" cx="0" cy="0" r="1" gradientUnits="userSpaceOnUse" gradientTransform="translate(16.9403 47.3478) rotate(-85.6683) scale(248.784)"> <stop stop-color="white"></stop> <stop offset="1" stop-color="#47D7FF" stop-opacity="0"></stop> </radialGradient> <radialGradient id="paint7_radial_564_36" cx="0" cy="0" r="1" gradientUnits="userSpaceOnUse" gradientTransform="translate(16.9403 47.3478) rotate(-85.6683) scale(248.784)"> <stop stop-color="white"></stop> <stop offset="1" stop-color="#47D7FF" stop-opacity="0"></stop> </radialGradient> <radialGradient id="paint8_radial_564_36" cx="0" cy="0" r="1" gradientUnits="userSpaceOnUse" gradientTransform="translate(16.9403 47.3478) rotate(-85.6683) scale(248.784)"> <stop stop-color="white"></stop> <stop offset="1" stop-color="#47D7FF" stop-opacity="0"></stop> </radialGradient> </defs> </svg> 