<?xml version="1.0" encoding="UTF-8"?> <svg xmlns="http://www.w3.org/2000/svg" width="1199" height="688" viewBox="0 0 1199 688" fill="none"> <path d="M323.115 143.195C317.196 138.642 308.546 138.187 302.171 141.943C293.634 124.755 269.958 117.129 252.998 126.235C248.559 107.681 230.347 93.4528 211.338 93.6804C192.329 93.9081 174.344 108.592 170.36 127.145C169.791 130.105 169.336 133.406 167.287 135.569C163.758 139.097 158.067 137.845 153.172 137.504C137.692 136.365 122.212 147.179 118 161.976L330.4 161.293C332.221 154.008 329.034 147.634 323.115 143.195Z" fill="#E6E6E6"></path> <path d="M234.902 391.451C231.714 389.061 226.82 388.719 223.291 390.768C218.624 381.32 205.421 377.109 196.087 382.117C193.696 371.873 183.566 363.905 172.98 364.019C162.394 364.246 152.491 372.328 150.328 382.686C149.987 384.28 149.759 386.101 148.621 387.239C146.686 389.288 143.499 388.605 140.767 388.378C132.23 387.695 123.579 393.728 121.303 401.923L238.999 401.468C240.024 397.484 238.203 393.955 234.902 391.451Z" fill="#F0F0F0"></path> <path d="M1079.72 353.205C1076.42 350.701 1071.64 350.473 1068.11 352.522C1063.33 343.074 1050.24 338.863 1040.9 343.871C1038.4 333.627 1028.27 325.659 1017.8 325.773C1007.21 325.887 997.308 334.082 995.032 344.44C994.69 346.034 994.462 347.855 993.324 348.993C991.389 350.928 988.202 350.359 985.584 350.132C976.933 349.449 968.396 355.481 966.006 363.677L1083.7 363.222C1084.73 359.238 1083.02 355.709 1079.72 353.205Z" fill="#F0F0F0"></path> <path d="M600.851 40.9808C595.957 37.3383 588.786 36.883 583.436 39.9563C576.378 25.728 556.8 19.4676 542.686 26.9801C539.043 11.6135 523.904 -0.224424 508.196 0.00322871C492.374 0.230882 477.577 12.4103 474.276 27.7769C473.707 30.2811 473.365 32.8991 471.658 34.7203C468.812 37.6798 464.032 36.6554 459.934 36.3139C447.185 35.2894 434.323 44.2817 430.908 56.6888L606.884 56.0059C608.364 50.0869 605.746 44.737 600.851 40.9808Z" fill="#F0F0F0"></path> <path d="M952.804 114.965C948.706 111.892 942.787 111.55 938.462 114.055C932.656 102.33 916.379 97.0944 904.769 103.355C901.809 90.6063 889.288 80.8173 876.198 81.0449C863.222 81.1587 850.929 91.2893 848.197 104.038C847.742 105.973 847.514 108.249 846.034 109.729C843.644 112.12 839.774 111.323 836.359 111.095C825.887 110.184 815.187 117.697 812.342 127.828L957.812 127.258C959.064 122.364 956.901 118.039 952.804 114.965Z" fill="#E6E6E6"></path> <path d="M168 687.8C168 687.8 219.2 606.7 215.8 602.2C212.4 597.8 290 491.9 304.5 487.5C310.6 485.7 322.2 465.7 333.5 443.2C348.8 412.7 363.7 377.6 363.7 377.6C363.7 377.6 371.6 376 383 377.5C394.4 379 400.8 358.4 400.8 358.4L440.6 348.1L455.5 358.4L478.1 372.7C478.1 372.7 499.4 377.1 506 377.5C512.6 377.9 577.3 274.7 577.3 274.7C577.3 274.7 590.2 265.5 597.2 265.4C604 265.4 615.5 255.9 615.5 255.9L638.9 250C638.9 250 667.2 292.3 679.9 308.6C692.6 324.9 713.4 334.2 720.4 348.1C727.3 361.9 761.1 352.4 774.4 370.3C787.7 388.3 970.8 585.6 970.8 585.6C992.5 609.1 1025.5 687.8 1025.5 687.8H168Z" fill="#F0F0F0"></path> <path d="M720.4 395.4C711.1 407.3 724.9 452 727 458.4L702.5 387.5L720.4 361.8L646.8 279.6V289.5C646.8 289.5 630.3 265.5 624.2 265.4C618 265.4 607.1 299 607.1 299L595 274.7C595 274.7 552.1 314.1 554.8 326.2C557.5 338.3 522.5 374.9 524.9 377.6C527.3 380.3 455.5 459.2 455.5 459.2L478.1 393.2C478.1 393.2 471.7 384.6 463.3 382.6C454.9 380.5 440.9 373.9 430.1 374.9C419.3 376 430.1 374.9 426.6 382.6C423.2 390.2 419.3 388.9 400.8 399.7C382.2 410.5 396.2 392.1 396.2 392.1L376.2 389.9L333.5 443.2C348.8 412.7 363.7 377.6 363.7 377.6C363.7 377.6 371.6 376 383 377.5C394.4 379 400.8 358.4 400.8 358.4L440.6 348.1L455.5 358.4L478.1 372.7C478.1 372.7 499.4 377.1 506 377.5C512.6 377.9 577.3 274.7 577.3 274.7C577.3 274.7 590.2 265.5 597.2 265.4C604 265.4 615.5 255.9 615.5 255.9L638.9 250C638.9 250 667.2 292.3 679.9 308.6C692.6 324.9 713.4 334.2 720.4 348.1C727.3 361.9 761.1 352.4 774.4 370.3H745.3C745.3 370.3 730.3 382.5 720.4 395.4Z" fill="#E6E6E6"></path> <path d="M99.2197 385.828C92.7977 379.545 82.4667 379.825 76.1843 386.247C76.0912 386.34 75.9981 386.433 75.9051 386.526C58.8728 405.233 29.8342 440.555 39.886 453.678C43.6554 458.564 63.6195 446.977 63.6195 446.977C63.6195 446.977 67.1097 457.866 70.5999 458.564C76.7427 459.96 91.4016 444.464 91.4016 444.464C91.4016 444.464 103.548 459.402 109.132 458.564C113.32 458.006 118.905 444.464 118.905 444.464C118.905 444.464 136.914 456.33 140.404 451.863C150.596 438.321 117.927 403.698 99.2197 385.828Z" fill="#D6D6D6"></path> <path opacity="0.3" d="M99.2197 385.828C92.7977 379.545 82.4667 379.825 76.1843 386.247C76.0912 386.34 75.9981 386.433 75.9051 386.526C58.8728 405.233 29.8342 440.555 39.886 453.678C43.6554 458.564 63.6195 446.977 63.6195 446.977C63.6195 446.977 67.1097 457.866 70.5999 458.564C76.7427 459.96 91.4016 444.464 91.4016 444.464C91.4016 444.464 103.548 459.402 109.132 458.564C113.32 458.006 118.905 444.464 118.905 444.464C118.905 444.464 136.914 456.33 140.404 451.863C150.596 438.321 117.927 403.698 99.2197 385.828Z" fill="black"></path> <path d="M84.9793 458.564L77.5801 680.822H96.8461L89.5864 458.564H84.9793Z" fill="#4F4F4F"></path> <path d="M85.1197 507.148C85.1197 507.148 -20.5641 611.855 3.58819 643.407C10.0102 651.783 44.354 631.819 44.354 631.819C44.354 631.819 50.6363 650.666 56.3603 651.923C66.9706 654.157 92.2398 627.631 92.2398 627.631C92.2398 627.631 113.321 653.319 122.954 651.923C130.213 650.806 139.846 627.631 139.846 627.631C139.846 627.631 170.839 648.014 176.843 640.196C201.135 607.946 85.1197 507.148 85.1197 507.148Z" fill="#D6D6D6"></path> <path opacity="0.3" d="M85.1197 507.148C85.1197 507.148 -20.5641 611.855 3.58819 643.407C10.0102 651.783 44.354 631.819 44.354 631.819C44.354 631.819 50.6363 650.666 56.3603 651.923C66.9706 654.157 92.2398 627.631 92.2398 627.631C92.2398 627.631 113.321 653.319 122.954 651.923C130.213 650.806 139.846 627.631 139.846 627.631C139.846 627.631 170.839 648.014 176.843 640.196C201.135 607.946 85.1197 507.148 85.1197 507.148Z" fill="black"></path> <path d="M86.5156 410.678C86.5156 410.678 11.6853 484.81 28.8571 507.008C33.4642 513.011 57.7561 498.771 57.7561 498.771C57.7561 498.771 62.2236 512.173 66.2723 513.011C73.6715 514.686 91.6811 495.839 91.6811 495.839C91.6811 495.839 106.48 513.988 113.32 513.011C118.486 512.313 125.327 495.839 125.327 495.839C125.327 495.839 147.245 510.358 151.434 504.774C168.745 482.018 86.5156 410.678 86.5156 410.678Z" fill="#D6D6D6"></path> <path opacity="0.3" d="M86.5156 410.678C86.5156 410.678 11.6853 484.81 28.8571 507.008C33.4642 513.011 57.7561 498.771 57.7561 498.771C57.7561 498.771 62.2236 512.173 66.2723 513.011C73.6715 514.686 91.6811 495.839 91.6811 495.839C91.6811 495.839 106.48 513.988 113.32 513.011C118.486 512.313 125.327 495.839 125.327 495.839C125.327 495.839 147.245 510.358 151.434 504.774C168.745 482.018 86.5156 410.678 86.5156 410.678Z" fill="black"></path> <path d="M85.8193 451.025C85.8193 451.025 -6.04324 541.911 15.0377 569.274C20.622 576.534 50.4983 559.222 50.4983 559.222C50.4983 559.222 55.9431 575.556 60.8294 576.673C70.0435 578.628 92.1017 555.592 92.1017 555.592C92.1017 555.592 110.251 577.93 118.627 576.673C125.049 575.696 133.286 555.592 133.286 555.592C133.286 555.592 160.231 573.323 165.396 566.482C186.617 538.56 85.8193 451.025 85.8193 451.025Z" fill="#D6D6D6"></path> <path opacity="0.3" d="M85.8193 451.025C85.8193 451.025 -6.04324 541.911 15.0377 569.274C20.622 576.534 50.4983 559.222 50.4983 559.222C50.4983 559.222 55.9431 575.556 60.8294 576.673C70.0435 578.628 92.1017 555.592 92.1017 555.592C92.1017 555.592 110.251 577.93 118.627 576.673C125.049 575.696 133.286 555.592 133.286 555.592C133.286 555.592 160.231 573.323 165.396 566.482C186.617 538.56 85.8193 451.025 85.8193 451.025Z" fill="black"></path> <path d="M365.037 385.828C358.475 379.545 348.144 379.825 342.002 386.247C341.908 386.34 341.815 386.433 341.722 386.526C324.69 405.233 295.512 440.555 305.703 453.678C309.473 458.564 329.297 446.977 329.297 446.977C329.297 446.977 332.927 457.866 336.278 458.564C342.42 459.96 357.079 444.464 357.079 444.464C357.079 444.464 369.225 459.402 374.81 458.564C379.137 458.006 384.582 444.464 384.582 444.464C384.582 444.464 402.731 456.33 406.082 451.863C416.413 438.321 383.745 403.698 365.037 385.828Z" fill="#D6D6D6"></path> <path opacity="0.3" d="M365.037 385.828C358.475 379.545 348.144 379.825 342.002 386.247C341.908 386.34 341.815 386.433 341.722 386.526C324.69 405.233 295.512 440.555 305.703 453.678C309.473 458.564 329.297 446.977 329.297 446.977C329.297 446.977 332.927 457.866 336.278 458.564C342.42 459.96 357.079 444.464 357.079 444.464C357.079 444.464 369.225 459.402 374.81 458.564C379.137 458.006 384.582 444.464 384.582 444.464C384.582 444.464 402.731 456.33 406.082 451.863C416.413 438.321 383.745 403.698 365.037 385.828Z" fill="black"></path> <path d="M350.656 458.564L343.396 680.822H362.662L355.263 458.564H350.656Z" fill="#4F4F4F"></path> <path d="M350.935 507.148C350.935 507.148 245.111 611.855 269.264 643.407C275.825 651.783 310.169 631.819 310.169 631.819C310.169 631.819 316.452 650.666 322.175 651.923C332.646 654.157 358.055 627.631 358.055 627.631C358.055 627.631 378.996 653.319 388.629 651.923C396.029 650.806 405.522 627.631 405.522 627.631C405.522 627.631 436.655 648.014 442.518 640.196C466.95 607.946 350.935 507.148 350.935 507.148Z" fill="#D6D6D6"></path> <path opacity="0.3" d="M350.935 507.148C350.935 507.148 245.111 611.855 269.264 643.407C275.825 651.783 310.169 631.819 310.169 631.819C310.169 631.819 316.452 650.666 322.175 651.923C332.646 654.157 358.055 627.631 358.055 627.631C358.055 627.631 378.996 653.319 388.629 651.923C396.029 650.806 405.522 627.631 405.522 627.631C405.522 627.631 436.655 648.014 442.518 640.196C466.95 607.946 350.935 507.148 350.935 507.148Z" fill="black"></path> <path d="M352.331 410.678C352.331 410.678 277.501 484.81 294.533 507.008C299.14 513.011 323.432 498.771 323.432 498.771C323.432 498.771 327.9 512.173 331.948 513.011C339.487 514.686 357.357 495.839 357.357 495.839C357.357 495.839 372.156 513.988 378.997 513.011C384.162 512.313 391.003 495.839 391.003 495.839C391.003 495.839 412.922 510.358 417.11 504.774C434.421 482.018 352.331 410.678 352.331 410.678Z" fill="#D6D6D6"></path> <path opacity="0.3" d="M352.331 410.678C352.331 410.678 277.501 484.81 294.533 507.008C299.14 513.011 323.432 498.771 323.432 498.771C323.432 498.771 327.9 512.173 331.948 513.011C339.487 514.686 357.357 495.839 357.357 495.839C357.357 495.839 372.156 513.988 378.997 513.011C384.162 512.313 391.003 495.839 391.003 495.839C391.003 495.839 412.922 510.358 417.11 504.774C434.421 482.018 352.331 410.678 352.331 410.678Z" fill="black"></path> <path d="M351.494 451.025C351.494 451.025 259.771 541.911 280.712 569.274C286.296 576.534 316.173 559.222 316.173 559.222C316.173 559.222 321.617 575.556 326.643 576.673C335.718 578.628 357.776 555.592 357.776 555.592C357.776 555.592 375.925 577.93 384.302 576.673C390.724 575.696 398.961 555.592 398.961 555.592C398.961 555.592 426.045 573.323 431.071 566.482C452.291 538.56 351.494 451.025 351.494 451.025Z" fill="#D6D6D6"></path> <path opacity="0.3" d="M351.494 451.025C351.494 451.025 259.771 541.911 280.712 569.274C286.296 576.534 316.173 559.222 316.173 559.222C316.173 559.222 321.617 575.556 326.643 576.673C335.718 578.628 357.776 555.592 357.776 555.592C357.776 555.592 375.925 577.93 384.302 576.673C390.724 575.696 398.961 555.592 398.961 555.592C398.961 555.592 426.045 573.323 431.071 566.482C452.291 538.56 351.494 451.025 351.494 451.025Z" fill="black"></path> <path d="M231.707 381.221L221.795 680.821H247.762L237.99 381.221H231.707Z" fill="#4F4F4F"></path> <path d="M231.988 446.838C231.988 446.838 89.5871 587.982 122.116 630.423C130.772 641.732 177.122 614.787 177.122 614.787C177.122 614.787 185.638 640.056 193.316 641.732C207.557 644.943 241.621 609.063 241.621 609.063C241.621 609.063 269.962 643.686 282.945 641.732C292.857 640.336 305.701 609.063 305.701 609.063C305.701 609.063 347.584 636.566 355.542 626.096C388.489 582.677 231.988 446.838 231.988 446.838Z" fill="#D6D6D6"></path> <path d="M232.966 371.031C232.966 371.031 109.133 493.608 137.473 530.465C145.012 540.377 185.22 516.922 185.22 516.922C185.22 516.922 192.619 538.841 199.32 540.377C211.745 543.169 241.342 511.896 241.342 511.896C241.342 511.896 265.774 542.052 277.222 540.377C285.738 539.12 296.907 511.896 296.907 511.896C296.907 511.896 333.345 535.909 340.185 526.835C368.666 489.14 232.966 371.031 232.966 371.031Z" fill="#D6D6D6"></path> <path d="M233.942 316.723C233.942 316.723 133.145 416.543 156.18 446.559C162.323 454.656 194.991 435.53 194.991 435.53C194.991 435.53 201.134 453.4 206.579 454.656C216.631 456.89 240.783 431.481 240.783 431.481C240.783 431.481 260.747 456.052 269.961 454.656C276.942 453.679 286.156 431.481 286.156 431.481C286.156 431.481 315.753 451.026 321.337 443.487C344.652 412.913 233.942 316.723 233.942 316.723Z" fill="#D6D6D6"></path> <path d="M251.113 283.216C242.317 274.7 228.496 274.979 219.98 283.775C219.887 283.961 219.747 284.101 219.561 284.194C196.665 309.323 157.435 356.93 171.117 374.66C176.143 381.222 202.948 365.586 202.948 365.586C202.948 365.586 207.834 380.244 212.302 381.222C220.678 383.037 240.363 362.235 240.363 362.235C240.363 362.235 256.837 382.339 264.376 381.222C270.1 380.384 277.499 362.235 277.499 362.235C277.499 362.235 301.791 378.29 306.537 372.147C320.359 353.858 276.242 307.369 251.113 283.216Z" fill="#D6D6D6"></path> <path d="M1019.38 385.828C1012.96 379.545 1002.63 379.825 996.344 386.247C996.251 386.34 996.158 386.433 996.065 386.526C979.033 405.233 949.994 440.555 960.046 453.678C963.816 458.564 983.78 446.977 983.78 446.977C983.78 446.977 987.27 457.866 990.76 458.564C996.903 459.96 1011.56 444.464 1011.56 444.464C1011.56 444.464 1023.71 459.402 1029.29 458.564C1033.48 458.006 1039.06 444.464 1039.06 444.464C1039.06 444.464 1057.07 456.33 1060.56 451.863C1070.76 438.321 1038.09 403.698 1019.38 385.828Z" fill="#D6D6D6"></path> <path opacity="0.3" d="M1019.38 385.828C1012.96 379.545 1002.63 379.825 996.344 386.247C996.251 386.34 996.158 386.433 996.065 386.526C979.033 405.233 949.994 440.555 960.046 453.678C963.816 458.564 983.78 446.977 983.78 446.977C983.78 446.977 987.27 457.866 990.76 458.564C996.903 459.96 1011.56 444.464 1011.56 444.464C1011.56 444.464 1023.71 459.402 1029.29 458.564C1033.48 458.006 1039.06 444.464 1039.06 444.464C1039.06 444.464 1057.07 456.33 1060.56 451.863C1070.76 438.321 1038.09 403.698 1019.38 385.828Z" fill="black"></path> <path d="M1005.14 458.564L997.74 680.822H1017.01L1009.75 458.564H1005.14Z" fill="#4F4F4F"></path> <path d="M1005.28 507.148C1005.28 507.148 899.596 611.855 923.748 643.407C930.17 651.783 964.514 631.819 964.514 631.819C964.514 631.819 970.796 650.666 976.52 651.923C987.131 654.157 1012.4 627.631 1012.4 627.631C1012.4 627.631 1033.48 653.319 1043.11 651.923C1050.37 650.806 1060.01 627.631 1060.01 627.631C1060.01 627.631 1091 648.014 1097 640.196C1121.29 607.946 1005.28 507.148 1005.28 507.148Z" fill="#D6D6D6"></path> <path opacity="0.3" d="M1005.28 507.148C1005.28 507.148 899.596 611.855 923.748 643.407C930.17 651.783 964.514 631.819 964.514 631.819C964.514 631.819 970.796 650.666 976.52 651.923C987.131 654.157 1012.4 627.631 1012.4 627.631C1012.4 627.631 1033.48 653.319 1043.11 651.923C1050.37 650.806 1060.01 627.631 1060.01 627.631C1060.01 627.631 1091 648.014 1097 640.196C1121.29 607.946 1005.28 507.148 1005.28 507.148Z" fill="black"></path> <path d="M1006.68 410.678C1006.68 410.678 931.986 484.81 949.018 507.008C953.625 513.011 977.917 498.771 977.917 498.771C977.917 498.771 982.384 512.173 986.433 513.011C993.832 514.686 1011.84 495.839 1011.84 495.839C1011.84 495.839 1026.64 513.988 1033.48 513.011C1038.65 512.313 1045.49 495.839 1045.49 495.839C1045.49 495.839 1067.41 510.358 1071.59 504.774C1088.91 482.018 1006.68 410.678 1006.68 410.678Z" fill="#D6D6D6"></path> <path opacity="0.3" d="M1006.68 410.678C1006.68 410.678 931.986 484.81 949.018 507.008C953.625 513.011 977.917 498.771 977.917 498.771C977.917 498.771 982.384 512.173 986.433 513.011C993.832 514.686 1011.84 495.839 1011.84 495.839C1011.84 495.839 1026.64 513.988 1033.48 513.011C1038.65 512.313 1045.49 495.839 1045.49 495.839C1045.49 495.839 1067.41 510.358 1071.59 504.774C1088.91 482.018 1006.68 410.678 1006.68 410.678Z" fill="black"></path> <path d="M1005.98 451.025C1005.98 451.025 914.117 541.911 935.198 569.274C940.782 576.534 970.659 559.222 970.659 559.222C970.659 559.222 976.103 575.556 980.99 576.673C990.204 578.628 1012.26 555.592 1012.26 555.592C1012.26 555.592 1030.41 577.93 1038.79 576.673C1045.21 575.696 1053.45 555.592 1053.45 555.592C1053.45 555.592 1080.39 573.323 1085.56 566.482C1106.78 538.56 1005.98 451.025 1005.98 451.025Z" fill="#D6D6D6"></path> <path opacity="0.3" d="M1005.98 451.025C1005.98 451.025 914.117 541.911 935.198 569.274C940.782 576.534 970.659 559.222 970.659 559.222C970.659 559.222 976.103 575.556 980.99 576.673C990.204 578.628 1012.26 555.592 1012.26 555.592C1012.26 555.592 1030.41 577.93 1038.79 576.673C1045.21 575.696 1053.45 555.592 1053.45 555.592C1053.45 555.592 1080.39 573.323 1085.56 566.482C1106.78 538.56 1005.98 451.025 1005.98 451.025Z" fill="black"></path> <path d="M1094.63 437.207L1086.67 680.824H1107.75L1099.66 437.207H1094.63Z" fill="#4F4F4F"></path> <path d="M1094.91 490.535C1094.91 490.535 979.034 605.294 1005.56 639.777C1012.54 648.991 1050.23 627.073 1050.23 627.073C1050.23 627.073 1057.08 647.735 1063.36 649.131C1074.95 651.644 1102.73 622.465 1102.73 622.465C1102.73 622.465 1125.76 650.666 1136.37 649.131C1144.33 647.874 1154.8 622.465 1154.8 622.465C1154.8 622.465 1188.87 644.803 1195.29 636.287C1222.09 600.966 1094.91 490.535 1094.91 490.535Z" fill="#D6D6D6"></path> <path d="M1095.61 428.83C1095.61 428.83 994.951 528.511 1017.99 558.527C1024.13 566.624 1056.8 547.498 1056.8 547.498C1056.8 547.498 1062.8 565.367 1068.25 566.624C1078.3 568.858 1102.45 543.449 1102.45 543.449C1102.45 543.449 1122.41 568.02 1131.63 566.624C1138.61 565.507 1147.68 543.449 1147.68 543.449C1147.68 543.449 1177.28 562.994 1182.86 555.595C1206.04 524.881 1095.61 428.83 1095.61 428.83Z" fill="#D6D6D6"></path> <path d="M1096.45 384.715C1096.45 384.715 1014.49 465.967 1033.2 490.399C1038.23 496.821 1064.89 481.324 1064.89 481.324C1064.89 481.324 1069.78 495.843 1074.11 496.96C1082.34 498.775 1102.03 477.973 1102.03 477.973C1102.03 477.973 1118.22 497.938 1125.76 496.96C1131.49 495.983 1138.89 477.973 1138.89 477.973C1138.89 477.973 1163.04 493.889 1167.51 487.886C1186.49 462.896 1096.45 384.715 1096.45 384.715Z" fill="#D6D6D6"></path> <path d="M1110.41 357.35C1103.29 350.509 1091.98 350.788 1085.14 357.908C1085.04 358.001 1084.95 358.094 1084.86 358.187C1066.15 378.71 1034.32 417.381 1045.35 431.761C1049.4 437.206 1071.32 424.501 1071.32 424.501C1071.32 424.501 1075.22 436.368 1078.85 437.206C1085.69 438.741 1101.75 421.709 1101.75 421.709C1101.75 421.709 1115.01 438.043 1121.16 437.206C1125.9 436.508 1131.91 421.709 1131.91 421.709C1131.91 421.709 1151.73 434.693 1155.5 429.806C1166.67 415.008 1130.93 377.034 1110.41 357.35Z" fill="#D6D6D6"></path> <path d="M881.867 381.221L871.955 680.821H897.922L888.15 381.221H881.867Z" fill="#4F4F4F"></path> <path d="M882.286 446.838C882.286 446.838 739.745 587.982 772.274 630.423C780.93 641.732 827.28 614.787 827.28 614.787C827.28 614.787 835.796 640.056 843.474 641.732C857.715 644.943 891.779 609.063 891.779 609.063C891.779 609.063 920.12 643.686 933.103 641.732C943.015 640.336 955.859 609.063 955.859 609.063C955.859 609.063 997.742 636.566 1005.7 626.096C1038.65 582.677 882.286 446.838 882.286 446.838Z" fill="#D6D6D6"></path> <path d="M883.122 371.031C883.122 371.031 759.289 493.608 787.63 530.465C795.169 540.377 835.376 516.922 835.376 516.922C835.376 516.922 842.775 538.841 849.476 540.377C861.902 543.169 891.499 511.896 891.499 511.896C891.499 511.896 916.07 542.052 927.378 540.377C935.894 539.12 947.063 511.896 947.063 511.896C947.063 511.896 983.501 535.909 990.342 526.835C1018.82 489.14 883.122 371.031 883.122 371.031Z" fill="#D6D6D6"></path> <path d="M884.1 316.723C884.1 316.723 783.303 416.543 806.338 446.559C812.481 454.656 845.289 435.53 845.289 435.53C845.289 435.53 851.292 453.4 856.737 454.656C866.789 456.89 890.941 431.481 890.941 431.481C890.941 431.481 910.905 456.052 920.119 454.656C927.1 453.679 936.314 431.481 936.314 431.481C936.314 431.481 965.911 451.026 971.495 443.487C994.81 412.913 884.1 316.723 884.1 316.723Z" fill="#D6D6D6"></path> <path d="M901.273 283.216C892.478 274.7 878.656 274.979 870.14 283.775C870.047 283.961 869.908 284.101 869.721 284.194C846.826 309.323 807.595 356.93 821.277 374.66C826.303 381.222 853.108 365.586 853.108 365.586C853.108 365.586 857.994 380.244 862.462 381.222C870.838 383.037 890.523 362.235 890.523 362.235C890.523 362.235 906.997 382.339 914.536 381.222C920.26 380.384 927.659 362.235 927.659 362.235C927.659 362.235 951.951 378.29 956.698 372.147C970.519 353.858 926.403 307.369 901.273 283.216Z" fill="#D6D6D6"></path> <path d="M926.123 294.525C936.175 305.694 944.412 316.723 953.347 327.892" stroke="#D6D6D6" stroke-linecap="round" stroke-linejoin="round"></path> <path d="M923.471 291.873C922.354 290.617 922.913 291.315 921.656 290.059" stroke="#D6D6D6" stroke-linecap="round" stroke-linejoin="round"></path> </svg> 